<svg xmlns="http://www.w3.org/2000/svg" width="34" height="34" viewBox="0 0 34 34">
  <g id="ic-ig" transform="translate(0.094)">
    <rect id="Rectangle_1667" data-name="Rectangle 1667" width="34" height="34" transform="translate(-0.094)" fill="#1d1f1d"/>
    <path id="Path_925" data-name="Path 925" d="M7.976-22.123a4.085,4.085,0,0,0-4.091,4.091A4.085,4.085,0,0,0,7.976-13.94a4.085,4.085,0,0,0,4.091-4.091A4.085,4.085,0,0,0,7.976-22.123Zm0,6.751a2.665,2.665,0,0,1-2.659-2.66,2.662,2.662,0,0,1,2.659-2.66,2.662,2.662,0,0,1,2.659,2.66A2.665,2.665,0,0,1,7.976-15.372Zm5.212-6.919a.954.954,0,0,0-.954-.954.954.954,0,0,0-.954.954.952.952,0,0,0,.954.954A.952.952,0,0,0,13.188-22.291Zm2.709.969a4.723,4.723,0,0,0-1.289-3.344,4.752,4.752,0,0,0-3.343-1.289c-1.317-.075-5.265-.075-6.583,0A4.745,4.745,0,0,0,1.34-24.669,4.739,4.739,0,0,0,.051-21.326c-.075,1.318-.075,5.267,0,6.584A4.723,4.723,0,0,0,1.34-11.4a4.758,4.758,0,0,0,3.343,1.289c1.317.075,5.265.075,6.583,0A4.721,4.721,0,0,0,14.609-11.4,4.754,4.754,0,0,0,15.9-14.742C15.972-16.059,15.972-20,15.9-21.322Zm-1.7,7.994a2.693,2.693,0,0,1-1.517,1.517c-1.05.417-3.542.32-4.7.32s-3.656.093-4.7-.32a2.693,2.693,0,0,1-1.517-1.517c-.417-1.05-.32-3.543-.32-4.7s-.093-3.657.32-4.7a2.693,2.693,0,0,1,1.517-1.517c1.05-.417,3.542-.32,4.7-.32s3.656-.093,4.7.32A2.693,2.693,0,0,1,14.2-22.736c.417,1.05.32,3.543.32,4.7S14.612-14.375,14.2-13.328Z" transform="translate(9.233 35.526)" fill="#fff"/>
  </g>
</svg>
