<svg xmlns="http://www.w3.org/2000/svg" width="34" height="34" viewBox="0 0 34 34">
  <g id="ic-linkedin" transform="translate(-804 -120)">
    <rect id="Rectangle_1665" data-name="Rectangle 1665" width="34" height="34" transform="translate(804 120)" fill="#1c201d"/>
    <path id="linkedin" d="M3.472,47.57H.244v-10.4H3.472ZM1.856,35.757A1.878,1.878,0,1,1,3.725,33.87a1.878,1.878,0,0,1-1.869,1.887Zm13.7,11.813H12.329V42.51c0-1.206-.024-2.753-1.678-2.753-1.678,0-1.935,1.31-1.935,2.666V47.57H5.494v-10.4h3.1v1.418h.045a3.392,3.392,0,0,1,3.054-1.679c3.266,0,3.867,2.151,3.867,4.946v5.71Z" transform="translate(813.206 97.518)" fill="#fff"/>
  </g>
</svg>
