<svg xmlns="http://www.w3.org/2000/svg" width="34" height="34" viewBox="0 0 34 34">
  <g id="ic-tiktok" transform="translate(0.439)">
    <rect id="Rectangle_1664" data-name="Rectangle 1664" width="34" height="34" transform="translate(-0.439)" fill="#1d1f1d"/>
    <path id="ic-tiktok-2" data-name="ic-tiktok" d="M-4.7-12.9A7.231,7.231,0,0,1-8.928-14.25V-8.1a5.6,5.6,0,0,1-3.635,5.239,5.6,5.6,0,0,1-6.181-1.567,5.6,5.6,0,0,1-.7-6.338,5.6,5.6,0,0,1,5.689-2.879v3.094a2.569,2.569,0,0,0-2.859.955A2.569,2.569,0,0,0-16.6-6.578a2.569,2.569,0,0,0,2.871.921A2.569,2.569,0,0,0-11.957-8.1V-20.125h3.029a4.171,4.171,0,0,0,.064.763A4.206,4.206,0,0,0-7.008-16.6a4.18,4.18,0,0,0,2.306.693Z" transform="translate(28.972 28.315)" fill="#fff"/>
  </g>
</svg>
