<svg xmlns="http://www.w3.org/2000/svg" width="34" height="34" viewBox="0 0 34 34">
  <g id="ic-youtube" transform="translate(0.439)">
    <rect id="Rectangle_1664" data-name="Rectangle 1664" width="34" height="34" transform="translate(-0.439)" fill="#1d1f1d"/>
    <path id="ic-youtube-2" data-name="ic-youtube" d="M-4.128-14.887a2.73,2.73,0,0,0-.709-1.221,2.73,2.73,0,0,0-1.221-.709,28.016,28.016,0,0,0-4.805-.394l-3.584-.039-3.584.039a28.016,28.016,0,0,0-4.805.394,2.73,2.73,0,0,0-1.221.709,2.73,2.73,0,0,0-.709,1.221,17.8,17.8,0,0,0-.394,3.23q-.039,1.1-.039,1.969l.039,1.969a18.008,18.008,0,0,0,.394,3.269,2.747,2.747,0,0,0,.709,1.182,2.73,2.73,0,0,0,1.221.709,28.016,28.016,0,0,0,4.805.394l3.584.039,3.584-.039a28.016,28.016,0,0,0,4.805-.394,2.73,2.73,0,0,0,1.221-.709,2.747,2.747,0,0,0,.709-1.182,18.008,18.008,0,0,0,.394-3.269L-3.7-9.687l-.039-1.969A17.8,17.8,0,0,0-4.128-14.887ZM-16.654-6.458v-6.42l5.633,3.19Z" transform="translate(31.009 26.688)" fill="#fff"/>
  </g>
</svg>
